<?xml version="1.0" encoding="UTF-8" standalone="no"?>
<!-- Created with Inkscape (http://www.inkscape.org/) -->

<svg
   width="30.338125mm"
   height="8.8991756mm"
   viewBox="0 0 30.338125 8.8991756"
   version="1.1"
   id="svg7856"
   inkscape:export-filename="logo.svg"
   inkscape:export-xdpi="133"
   inkscape:export-ydpi="133"
   xmlns:inkscape="http://www.inkscape.org/namespaces/inkscape"
   xmlns:sodipodi="http://sodipodi.sourceforge.net/DTD/sodipodi-0.dtd"
   xmlns="http://www.w3.org/2000/svg"
   xmlns:svg="http://www.w3.org/2000/svg">
  <sodipodi:namedview
     id="namedview7858"
     pagecolor="#ffffff"
     bordercolor="#666666"
     borderopacity="1.0"
     inkscape:showpageshadow="2"
     inkscape:pageopacity="0.0"
     inkscape:pagecheckerboard="0"
     inkscape:deskcolor="#d1d1d1"
     inkscape:document-units="mm"
     showgrid="false" />
  <defs
     id="defs7853" />
  <g
     inkscape:label="Layer 1"
     inkscape:groupmode="layer"
     id="layer1"
     transform="translate(-3.3008149,-2.6128084)">
    <path
       d="m 4.7517416,9.2460482 c 0.36759,-0.99095 0.5521,-2.07186 1.07597,-2.99861 0.37571,-0.66499 1.02729,-1.39559 1.86761,-1.32503 0.26493,0.0222 0.54469,0.11818 0.74612,0.29668 0.35349,0.31327 0.2914,0.75107 0.1905,1.17087 -0.2159,0.8957 -0.43885,1.78647 0.14041,2.60385 0.56621,0.7994 1.5688004,0.81633 2.2683604,0.17498 0.6798,-0.62371 0.86713,-1.56104 0.95285,-2.43805 0.0727,-0.74577 0.024,-1.62313 0.47907,-2.26659 0.5133,-0.72567 1.40406,-0.31962 1.85773,0.26141 0.61772,0.79092 0.89182,1.86972 1.30105,2.77389 0.43321,0.95779 0.89464,1.93463 1.46367,2.8204598 0.52882,0.82267 1.41887,1.3663 2.3816,0.87383 0.89359,-0.4572 1.34127,-1.4823798 1.58539,-2.4034798 0.24976,-0.9398 0.31538,-1.92052 0.60924,-2.84974 0.0822,-0.25999 0.23707,-0.77611 0.5327,-0.889 0.31256,-0.11924 0.53481,0.38488 0.63112,0.60114 0.35066,0.78669 0.73342,1.96426 1.81539,1.92193 1.05481,-0.0413 1.4852,-1.10702 1.62772,-1.99496 0.0572,-0.3556 0.0762,-0.98954 0.41804,-1.21673 0.32844,-0.21802 0.71685,0.36442 0.86783,0.59902 0.564449,0.877 0.707677,1.94239 1.032232,2.91606 0.334434,1.00259 0.856545,2.02353 1.815395,2.5569298 0.847019,0.47131 1.962855,0.57291 2.770716,-0.0349 0.287514,-0.21626 0.428625,-0.5686798 0.237067,-0.9048798 -0.160867,-0.28293 -0.620183,-0.45155 -0.904875,-0.23742 -0.644525,0.48507 -1.486253,0.16722 -1.967089,-0.40816 -0.5969,-0.71402 -0.786342,-1.68628 -1.03258,-2.55799 -0.270934,-0.95921 -0.621948,-1.96286 -1.347612,-2.6797 -0.678744,-0.67063 -1.694034,-0.88583 -2.427114,-0.16546 -0.30621,0.30057 -0.51011,0.71544 -0.62018,1.12642 -0.12206,0.45614 -0.0945,0.97155 -0.2921,1.40618 -0.0413,0.0914 -0.15663,0.28186 -0.2226,0.26705 -0.0843,-0.0187 -0.23425,-0.33373 -0.27976,-0.4258 -0.20178,-0.40887 -0.31256,-0.85584 -0.5722,-1.23684 -0.56833,-0.83326 -1.60549,-1.18393 -2.44722,-0.50871 -0.71896,0.57679 -0.96591,1.57021 -1.13841,2.4324 -0.1898,0.94651 -0.26035,1.97768 -0.71826,2.84445 -0.12594,0.23883 -0.41734,0.7489498 -0.75882,0.7178998 -0.38594,-0.0356 -0.67028,-0.7821098 -0.82621,-1.0636198 -0.53481,-0.96626 -1.02129,-1.96215 -1.44145,-2.98415 -0.38488,-0.93592 -0.73872,-1.95615 -1.54728,-2.62043 -0.73202,-0.60149 -1.74449,-0.87807 -2.63067,-0.44627 -0.77329,0.37677 -1.19979,1.19945 -1.37901,2.00766 -0.18203,0.82056 -0.0995,1.67993 -0.32243,2.49061 -0.0543,0.19826 -0.27588,0.86466 -0.5637404,0.86255 -0.21449,-10e-4 -0.27588,-0.43075 -0.2787,-0.59444 -0.009,-0.53939 0.26388,-1.08232 0.3213804,-1.6203 0.0579,-0.54434 -0.0628,-1.08832 -0.3940504,-1.52788 -0.58279,-0.77365 -1.61854,-1.10526 -2.55764,-0.92534 -2.43946,0.46708 -2.88325,3.3274 -3.5948,5.24651 -0.29634,0.79939 0.98178,1.1444098 1.27564,0.35172 z"
       style="fill:none;stroke:#7b8c79;stroke-width:0.264583;stroke-linecap:butt;stroke-linejoin:miter;stroke-miterlimit:10;stroke-dasharray:none;stroke-opacity:1"
       id="path298" />
  </g>
</svg>
